<svg width="20" height="20" viewBox="0 0 20 20" fill="#9AA4CA" xmlns="http://www.w3.org/2000/svg">
    <path d="M14.7917 2.5C14.7917 2.15483 14.5118 1.875 14.1667 1.875C13.8215 1.875 13.5417 2.15483 13.5417 2.5V3.33333H6.45832V2.5C6.45832 2.15483 6.1785 1.875 5.83332 1.875C5.48815 1.875 5.20832 2.15483 5.20832 2.5V3.33333H3.33332C2.41285 3.33333 1.66666 4.07952 1.66666 5V6.04167H18.3333V5C18.3333 4.07952 17.5872 3.33333 16.6667 3.33333H14.7917V2.5Z"></path>
    <path d="M18.3333 7.29166H1.66666V15C1.66666 15.9205 2.41285 16.6667 3.33332 16.6667H16.6667C17.5872 16.6667 18.3333 15.9205 18.3333 15V7.29166Z"></path>
</svg>