<svg width="20" height="20" viewBox="0 0 20 20" fill="#9AA4CA" xmlns="http://www.w3.org/2000/svg">
    <path d="M1.66666 1.04175C2.01183 1.04175 2.29166 1.32157 2.29166 1.66675V16.6667C2.29166 17.2421 2.75802 17.7084 3.33332 17.7084H18.3333C18.6785 17.7084 18.9583 17.9882 18.9583 18.3334C18.9583 18.6786 18.6785 18.9584 18.3333 18.9584H3.33332C2.06767 18.9584 1.04166 17.9324 1.04166 16.6667V1.66675C1.04166 1.32157 1.32148 1.04175 1.66666 1.04175Z"></path>
    <path d="M4.16666 5.00008C4.16666 4.53985 4.53976 4.16675 4.99999 4.16675H8.33332C8.79357 4.16675 9.16666 4.53985 9.16666 5.00008V15.0001C9.16666 15.4603 8.79357 15.8334 8.33332 15.8334H4.99999C4.53976 15.8334 4.16666 15.4603 4.16666 15.0001V5.00008Z"></path>
    <path d="M11.6667 8.33337C11.2064 8.33337 10.8333 8.70646 10.8333 9.16671V15C10.8333 15.4603 11.2064 15.8334 11.6667 15.8334H15C15.4603 15.8334 15.8333 15.4603 15.8333 15V9.16671C15.8333 8.70646 15.4603 8.33337 15 8.33337H11.6667Z"></path>
</svg>