<svg width="20" height="20" viewBox="0 0 20 20" fill="#9AA4CA" xmlns="http://www.w3.org/2000/svg">
    <path d="M5.48663 1.1466C5.77383 0.955131 6.16188 1.03274 6.35335 1.31994L6.87852 2.10769C7.20508 2.59755 7.20508 3.23571 6.87852 3.72556L6.35335 4.51331C6.16188 4.80052 5.77383 4.87813 5.48663 4.68666C5.19943 4.49519 5.12182 4.10715 5.31328 3.81994L5.83845 3.03219C5.88511 2.96221 5.88511 2.87105 5.83845 2.80106L5.31328 2.01331C5.12182 1.72611 5.19943 1.33806 5.48663 1.1466Z"></path>
    <path d="M2.49999 5.83331C2.03976 5.83331 1.66666 6.2064 1.66666 6.66665V10.8333C1.66666 13.5948 3.90523 15.8333 6.66666 15.8333H9.99999C12.1856 15.8333 14.0436 14.431 14.7235 12.4772C14.8134 12.4922 14.9058 12.5 15 12.5H16.6667C17.5872 12.5 18.3333 11.7538 18.3333 10.8333V8.33331C18.3333 7.41284 17.5872 6.66665 16.6667 6.66665H15C15 6.2064 14.6269 5.83331 14.1667 5.83331H2.49999ZM14.9829 11.2496C14.9942 11.1123 15 10.9735 15 10.8333V7.91665H16.6667C16.8967 7.91665 17.0833 8.10319 17.0833 8.33331V10.8333C17.0833 11.0634 16.8967 11.25 16.6667 11.25H15L14.9898 11.2498L14.9829 11.2496Z"></path>
    <path d="M8.85332 1.31994C8.6619 1.03274 8.27383 0.955131 7.98663 1.1466C7.69943 1.33806 7.62182 1.72611 7.81328 2.01331L8.33848 2.80106C8.38507 2.87105 8.38507 2.96221 8.33848 3.03219L7.81328 3.81994C7.62182 4.10715 7.69943 4.49519 7.98663 4.68666C8.27383 4.87813 8.6619 4.80052 8.85332 4.51331L9.37848 3.72556C9.70507 3.23571 9.70507 2.59755 9.37848 2.10769L8.85332 1.31994Z"></path>
    <path d="M10.4867 1.1466C10.7738 0.955131 11.1619 1.03274 11.3533 1.31994L11.8785 2.10769C12.2051 2.59755 12.2051 3.23571 11.8785 3.72556L11.3533 4.51331C11.1619 4.80052 10.7738 4.87813 10.4867 4.68666C10.1994 4.49519 10.1218 4.10715 10.3133 3.81994L10.8385 3.03219C10.8851 2.96221 10.8851 2.87105 10.8385 2.80106L10.3133 2.01331C10.1218 1.72611 10.1994 1.33806 10.4867 1.1466Z"></path>
    <path d="M2.49999 16.6667C2.03976 16.6667 1.66666 17.0398 1.66666 17.5C1.66666 17.9602 2.03976 18.3334 2.49999 18.3334H14.1667C14.6269 18.3334 15 17.9602 15 17.5C15 17.0398 14.6269 16.6667 14.1667 16.6667H2.49999Z"></path>
</svg>