<svg width="20" height="20" viewBox="0 0 20 20" fill="#9AA4CA" xmlns="http://www.w3.org/2000/svg">
    <path d="M4.16666 4.16675C4.16666 2.78604 6.77833 1.66675 9.99999 1.66675C13.2217 1.66675 15.8333 2.78604 15.8333 4.16675V4.57073C15.8027 4.60316 15.7678 4.637 15.7282 4.6722C15.4683 4.90251 15.0568 5.13848 14.4946 5.34931C13.3747 5.76924 11.7858 6.04175 9.99999 6.04175C8.21415 6.04175 6.62521 5.76924 5.5054 5.34931C4.94318 5.13848 4.53162 4.90251 4.27185 4.6722C4.23215 4.637 4.19726 4.60316 4.16666 4.57073V4.16675Z"></path>
    <path d="M4.16666 6.10992V8.73742C4.19726 8.76983 4.23215 8.80367 4.27185 8.83883C4.53162 9.06917 4.94318 9.30517 5.5054 9.516C6.62521 9.93592 8.21415 10.2084 9.99999 10.2084C11.7858 10.2084 13.3747 9.93592 14.4946 9.516C15.0568 9.30517 15.4683 9.06917 15.7282 8.83883C15.7678 8.80367 15.8027 8.76983 15.8333 8.73742V6.10992C15.5592 6.26222 15.2563 6.39865 14.9335 6.51972C13.6404 7.00462 11.8961 7.29175 9.99999 7.29175C8.10394 7.29175 6.35954 7.00462 5.06649 6.51972C4.74364 6.39865 4.44074 6.26222 4.16666 6.10992Z"></path>
    <path d="M15.8333 10.2766C15.5592 10.4289 15.2563 10.5653 14.9335 10.6864C13.6404 11.1712 11.8961 11.4584 9.99999 11.4584C8.10394 11.4584 6.35954 11.1712 5.06649 10.6864C4.74364 10.5653 4.44074 10.4289 4.16666 10.2766V12.904C4.19726 12.9365 4.23215 12.9703 4.27185 13.0055C4.53162 13.2358 4.94318 13.4718 5.5054 13.6826C6.62521 14.1025 8.21415 14.375 9.99999 14.375C11.7858 14.375 13.3747 14.1025 14.4946 13.6826C15.0568 13.4718 15.4683 13.2358 15.7282 13.0055C15.7678 12.9703 15.8027 12.9365 15.8333 12.904V10.2766Z"></path>
    <path d="M15.8333 14.4432C15.5592 14.5956 15.2563 14.732 14.9335 14.8531C13.6404 15.3379 11.8961 15.6251 9.99999 15.6251C8.10394 15.6251 6.35954 15.3379 5.06649 14.8531C4.74364 14.732 4.44074 14.5956 4.16666 14.4432V15.8334C4.16666 17.2142 6.77833 18.3334 9.99999 18.3334C13.2217 18.3334 15.8333 17.2142 15.8333 15.8334V14.4432Z"></path>
</svg>