<svg width="20" height="20" viewBox="0 0 20 20" fill="#9AA4CA" xmlns="http://www.w3.org/2000/svg">
  <path d="M1.66666 5.41669C1.66666 3.34562 3.34559 1.66669 5.41666 1.66669C7.48772 1.66669 9.16666 3.34562 9.16666 5.41669C9.16666 7.48775 7.48772 9.16669 5.41666 9.16669C3.34559 9.16669 1.66666 7.48775 1.66666 5.41669Z"></path>
  <path d="M1.66666 14.5834C1.66666 12.5123 3.34559 10.8334 5.41666 10.8334C7.48772 10.8334 9.16666 12.5123 9.16666 14.5834C9.16666 16.6545 7.48772 18.3334 5.41666 18.3334C3.34559 18.3334 1.66666 16.6545 1.66666 14.5834Z"></path>
  <path d="M10.8333 5.41669C10.8333 3.34562 12.5123 1.66669 14.5833 1.66669C16.6544 1.66669 18.3333 3.34562 18.3333 5.41669C18.3333 7.48775 16.6544 9.16669 14.5833 9.16669C12.5123 9.16669 10.8333 7.48775 10.8333 5.41669Z"></path>
  <path d="M10.8333 14.5834C10.8333 12.5123 12.5123 10.8334 14.5833 10.8334C16.6544 10.8334 18.3333 12.5123 18.3333 14.5834C18.3333 16.6545 16.6544 18.3334 14.5833 18.3334C12.5123 18.3334 10.8333 16.6545 10.8333 14.5834Z"></path>
</svg>