<svg width="20" height="20" viewBox="0 0 20 20" fill="#9AA4CA" xmlns="http://www.w3.org/2000/svg">
    <path d="M18.3333 15C18.3333 15.9205 17.5872 16.6667 16.6667 16.6667H3.33332C2.41285 16.6667 1.66666 15.9205 1.66666 15V4.99999C1.66666 4.07952 2.41285 3.33333 3.33332 3.33333H7.64296C8.085 3.33333 8.50891 3.50892 8.82149 3.82149L10.3452 5.34517C10.6577 5.65774 11.0817 5.83333 11.5237 5.83333H16.6667C17.5872 5.83333 18.3333 6.57952 18.3333 7.49999V15Z"></path>
    <path d="M16.4583 4.58333L16.0637 3.79399C15.9225 3.51166 15.6339 3.33333 15.3183 3.33333H10.1011L11.2291 4.46129C11.3072 4.53943 11.4132 4.58333 11.5237 4.58333H16.4583Z"></path>
</svg>