<svg width="20" height="20" viewBox="0 0 20 20" fill="#9AA4CA" xmlns="http://www.w3.org/2000/svg">
    <path d="M4.16666 3.33335C4.16666 2.41288 4.91285 1.66669 5.83332 1.66669H14.1667C15.0872 1.66669 15.8333 2.41288 15.8333 3.33335V16.6667C15.8333 17.5872 15.0872 18.3334 14.1667 18.3334H5.83332C4.91285 18.3334 4.16666 17.5872 4.16666 16.6667V3.33335ZM6.04166 5.00002C6.04166 5.3452 6.32148 5.62502 6.66666 5.62502H13.3333C13.6785 5.62502 13.9583 5.3452 13.9583 5.00002C13.9583 4.65485 13.6785 4.37502 13.3333 4.37502H6.66666C6.32148 4.37502 6.04166 4.65485 6.04166 5.00002ZM6.66666 6.87502C6.32148 6.87502 6.04166 7.15485 6.04166 7.50002C6.04166 7.8452 6.32148 8.12502 6.66666 8.12502H13.3333C13.6785 8.12502 13.9583 7.8452 13.9583 7.50002C13.9583 7.15485 13.6785 6.87502 13.3333 6.87502H6.66666ZM6.04166 10C6.04166 10.3452 6.32148 10.625 6.66666 10.625H9.99999C10.3452 10.625 10.625 10.3452 10.625 10C10.625 9.65485 10.3452 9.37502 9.99999 9.37502H6.66666C6.32148 9.37502 6.04166 9.65485 6.04166 10ZM9.99999 16.6667C10.9205 16.6667 11.6667 15.9205 11.6667 15C11.6667 14.0795 10.9205 13.3334 9.99999 13.3334C9.07949 13.3334 8.33332 14.0795 8.33332 15C8.33332 15.9205 9.07949 16.6667 9.99999 16.6667Z"></path>
</svg>