<svg width="20" height="20" viewBox="0 0 20 20" fill="#9AA4CA" xmlns="http://www.w3.org/2000/svg">
    <path d="M13.125 3.33337C13.125 2.9882 12.8452 2.70837 12.5 2.70837C12.1548 2.70837 11.875 2.9882 11.875 3.33337V5.83337H8.125V3.33337C8.125 2.9882 7.84518 2.70837 7.5 2.70837C7.15482 2.70837 6.875 2.9882 6.875 3.33337V5.83337H6.66667C5.74619 5.83337 5 6.57957 5 7.50004V10C5 12.3012 6.86548 14.1667 9.16667 14.1667H9.375V18.3334C9.375 18.6785 9.65483 18.9584 10 18.9584C10.3452 18.9584 10.625 18.6785 10.625 18.3334V14.1667H10.8333C13.1345 14.1667 15 12.3012 15 10V7.50004C15 6.57957 14.2538 5.83337 13.3333 5.83337H13.125V3.33337Z"></path>
</svg>