<svg width="20" height="20" viewBox="0 0 20 20" fill="#9AA4CA" xmlns="http://www.w3.org/2000/svg">
    <path d="M1.66666 4.16667C1.66666 3.24619 2.41285 2.5 3.33332 2.5H16.6667C17.5872 2.5 18.3333 3.24619 18.3333 4.16667V9.16667C18.3333 10.0872 17.5872 10.8333 16.6667 10.8333H3.33332C2.41285 10.8333 1.66666 10.0872 1.66666 9.16667V4.16667Z"></path>
    <path d="M1.875 13.75C1.875 13.4048 2.15483 13.125 2.5 13.125H17.5C17.8452 13.125 18.125 13.4048 18.125 13.75C18.125 14.0952 17.8452 14.375 17.5 14.375H2.5C2.15483 14.375 1.875 14.0952 1.875 13.75Z"></path>
    <path d="M2.5 16.875C2.15483 16.875 1.875 17.1548 1.875 17.5C1.875 17.8452 2.15483 18.125 2.5 18.125H17.5C17.8452 18.125 18.125 17.8452 18.125 17.5C18.125 17.1548 17.8452 16.875 17.5 16.875H2.5Z"></path>
</svg>