<svg width="20" height="20" viewBox="0 0 20 20" fill="#9AA4CA" xmlns="http://www.w3.org/2000/svg">
    <path d="M2.49999 3.33334C2.03976 3.33334 1.66666 3.70644 1.66666 4.16668V5.83334C1.66666 6.29358 2.03976 6.66668 2.49999 6.66668H4.16666C4.62689 6.66668 4.99999 6.29358 4.99999 5.83334V4.16668C4.99999 3.70644 4.62689 3.33334 4.16666 3.33334H2.49999Z"></path>
    <path d="M2.49999 8.33334C2.03976 8.33334 1.66666 8.70643 1.66666 9.16668V10.8333C1.66666 11.2936 2.03976 11.6667 2.49999 11.6667H4.16666C4.62689 11.6667 4.99999 11.2936 4.99999 10.8333V9.16668C4.99999 8.70643 4.62689 8.33334 4.16666 8.33334H2.49999Z"></path>
    <path d="M1.66666 14.1667C1.66666 13.7064 2.03976 13.3333 2.49999 13.3333H4.16666C4.62689 13.3333 4.99999 13.7064 4.99999 14.1667V15.8333C4.99999 16.2936 4.62689 16.6667 4.16666 16.6667H2.49999C2.03976 16.6667 1.66666 16.2936 1.66666 15.8333V14.1667Z"></path>
    <path d="M7.29166 4.375C6.94648 4.375 6.66666 4.65483 6.66666 5C6.66666 5.34517 6.94648 5.625 7.29166 5.625H17.7083C18.0535 5.625 18.3333 5.34517 18.3333 5C18.3333 4.65483 18.0535 4.375 17.7083 4.375H7.29166Z"></path>
    <path d="M6.66666 10C6.66666 9.65483 6.94648 9.375 7.29166 9.375H17.7083C18.0535 9.375 18.3333 9.65483 18.3333 10C18.3333 10.3452 18.0535 10.625 17.7083 10.625H7.29166C6.94648 10.625 6.66666 10.3452 6.66666 10Z"></path>
    <path d="M7.29166 14.375C6.94648 14.375 6.66666 14.6548 6.66666 15C6.66666 15.3452 6.94648 15.625 7.29166 15.625H17.7083C18.0535 15.625 18.3333 15.3452 18.3333 15C18.3333 14.6548 18.0535 14.375 17.7083 14.375H7.29166Z"></path>
</svg>